<?xml version="1.0" standalone="no"?>
<svg id="cn-flag" width="600" height="400" viewBox="0 0 30 20" xmlns="http://www.w3.org/2000/svg" xmlns:xlink="http://www.w3.org/1999/xlink">
  <symbol id="star5" viewBox="-1 -1 2 2">
    <polygon points="0.0 -1.0 0.2245139883 -0.3090169944 0.9510565163 -0.3090169944 0.363271264 0.1180339887 0.5877852523 0.8090169944 0.0 0.3819660113 -0.5877852523 0.8090169944 -0.363271264 0.1180339887 -0.9510565163 -0.3090169944 -0.2245139883 -0.3090169944 " fill="yellow"/>
  </symbol>
  <rect width="30" height="20" fill="red"/>
  <use xlink:href="#star5" x="2"  y="2" width="6" height="6"/>
  <use xlink:href="#star5" x="9"  y="1" width="2" height="2" transform="rotate(-120.963757,10,2)"/>
  <use xlink:href="#star5" x="11"  y="3" width="2" height="2" transform="rotate(-98.130102,12,4)"/>
  <use xlink:href="#star5" x="11"  y="6" width="2" height="2" transform="rotate(-74.054604,12,7)"/>
  <use xlink:href="#star5" x="9"  y="8" width="2" height="2" transform="rotate(-51.340192,10,9)"/>

  <!-- auxiliary lines -->

  <line x1="0" y1="1" x2="15" y2="1" stroke="gray" stroke-width="0.01" />
  <line x1="0" y1="2" x2="15" y2="2" stroke="gray" stroke-width="0.01" />
  <line x1="0" y1="3" x2="15" y2="3" stroke="gray" stroke-width="0.01" />
  <line x1="0" y1="4" x2="15" y2="4" stroke="gray" stroke-width="0.01" />
  <line x1="0" y1="5" x2="15" y2="5" stroke="gray" stroke-width="0.01" />
  <line x1="0" y1="6" x2="15" y2="6" stroke="gray" stroke-width="0.01" />
  <line x1="0" y1="7" x2="15" y2="7" stroke="gray" stroke-width="0.01" />
  <line x1="0" y1="8" x2="15" y2="8" stroke="gray" stroke-width="0.01" />
  <line x1="0" y1="9" x2="15" y2="9" stroke="gray" stroke-width="0.01" />

  <line x1="1" y1="0" x2="1" y2="10" stroke="gray" stroke-width="0.01" />
  <line x1="2" y1="0" x2="2" y2="10" stroke="gray" stroke-width="0.01" />
  <line x1="3" y1="0" x2="3" y2="10" stroke="gray" stroke-width="0.01" />
  <line x1="4" y1="0" x2="4" y2="10" stroke="gray" stroke-width="0.01" />
  <line x1="5" y1="0" x2="5" y2="10" stroke="gray" stroke-width="0.01" />
  <line x1="6" y1="0" x2="6" y2="10" stroke="gray" stroke-width="0.01" />
  <line x1="7" y1="0" x2="7" y2="10" stroke="gray" stroke-width="0.01" />
  <line x1="8" y1="0" x2="8" y2="10" stroke="gray" stroke-width="0.01" />
  <line x1="9" y1="0" x2="9" y2="10" stroke="gray" stroke-width="0.01" />
  <line x1="10" y1="0" x2="10" y2="10" stroke="gray" stroke-width="0.01" />
  <line x1="11" y1="0" x2="11" y2="10" stroke="gray" stroke-width="0.01" />
  <line x1="12" y1="0" x2="12" y2="10" stroke="gray" stroke-width="0.01" />
  <line x1="13" y1="0" x2="13" y2="10" stroke="gray" stroke-width="0.01" />
  <line x1="14" y1="0" x2="14" y2="10" stroke="gray" stroke-width="0.01" />
  <circle cx="5" cy="5" r="3" stroke="gray" stroke-width="0.01" fill="none" />

  <line x1="5" y1="5" x2="10" y2="2" stroke="gray" stroke-width="0.01" />
  <circle cx="10" cy="2" r="1" stroke="gray" stroke-width="0.01" fill="none" />
  <line x1="5" y1="5" x2="12" y2="4" stroke="gray" stroke-width="0.01" />
  <circle cx="12" cy="4" r="1" stroke="gray" stroke-width="0.01" fill="none" />
  <line x1="5" y1="5" x2="12" y2="7" stroke="gray" stroke-width="0.01" />
  <circle cx="12" cy="7" r="1" stroke="gray" stroke-width="0.01" fill="none" />
  <line x1="5" y1="5" x2="10" y2="9" stroke="gray" stroke-width="0.01" />
  <circle cx="10" cy="9" r="1" stroke="gray" stroke-width="0.01" fill="none" />
  <line x1="0" y1="10" x2="30" y2="10" stroke="gray" stroke-width="0.01" stroke-dasharray="1 0.2 0.2 0.2"/>
  <line x1="15" y1="0" x2="15" y2="20" stroke="gray" stroke-width="0.01" stroke-dasharray="1 0.2 0.2 0.2"/>
</svg> 
